<svg width="24" height="24" viewBox="0 0 24 24" fill="none" xmlns="http://www.w3.org/2000/svg">
<g id="Group">
<path id="Path" d="M5.9975 13.1535C4.15973 13.9778 2.99625 15.1703 2.99625 16.5019C2.99625 18.9879 7.02693 21.0037 12 21.0037C16.9731 21.0037 21.0037 18.9879 21.0037 16.5019C21.0037 15.1703 19.8403 13.9778 18.0025 13.1535" stroke="#4400DD" stroke-width="1.5" stroke-linecap="round" stroke-linejoin="round"/>
<path id="Path_2" d="M15.6535 17.0021C14.5694 17.7075 13.2922 18.0572 12 18.0025C10.7077 18.0572 9.43058 17.7075 8.34647 17.0021" stroke="#4400DD" stroke-width="1.5" stroke-linecap="round" stroke-linejoin="round"/>
<path id="Path_3" d="M14.2009 3.90963C15.0928 4.80145 15.3596 6.1427 14.8769 7.30794C14.3943 8.47319 13.2572 9.23295 11.996 9.23295C10.7347 9.23295 9.59768 8.47319 9.11504 7.30794C8.63239 6.1427 8.89921 4.80145 9.79107 3.90963C10.3757 3.32462 11.1689 2.99594 11.996 2.99594C12.8231 2.99594 13.6162 3.32462 14.2009 3.90963" stroke="#4400DD" stroke-width="1.5" stroke-linecap="round" stroke-linejoin="round"/>
<path id="Path_4" d="M12 9.23083V15.0012" stroke="#4400DD" stroke-width="1.5" stroke-linecap="round" stroke-linejoin="round"/>
</g>
</svg>
